<svg width="74" height="24" viewBox="0 0 74 24" fill="none" xmlns="http://www.w3.org/2000/svg">
<path fill-rule="evenodd" clip-rule="evenodd" d="M60.237 23.0814H60.3983C60.4758 23.0814 60.5137 23.1133 60.5137 23.175C60.5137 23.2396 60.4719 23.2714 60.3863 23.2714H60.237V23.0814ZM60.5385 23.3561C60.6232 23.3202 60.665 23.2615 60.665 23.177C60.665 23.1174 60.6431 23.0695 60.6013 23.0307C60.5584 22.9939 60.4958 22.9741 60.4082 22.9741H60.0919V23.6545H60.237V23.38H60.4013L60.5116 23.6545H60.6639L60.5385 23.3561ZM60.7087 23.6656C60.6132 23.7631 60.5007 23.8108 60.3684 23.8108C60.236 23.8108 60.1216 23.7631 60.0271 23.6656C59.9315 23.5681 59.8849 23.4517 59.8849 23.3133C59.8849 23.178 59.9315 23.0606 60.0262 22.9642C60.1216 22.8665 60.236 22.8177 60.3703 22.8177C60.5027 22.8177 60.6152 22.8665 60.7096 22.9642C60.8032 23.0617 60.8509 23.1789 60.8509 23.3133C60.8509 23.4517 60.8022 23.5681 60.7087 23.6656ZM60.7853 22.8974C60.67 22.7811 60.5326 22.7254 60.3703 22.7254C60.2072 22.7254 60.0678 22.7811 59.9525 22.8974C59.8371 23.0138 59.7794 23.152 59.7794 23.3133C59.7794 23.4764 59.8371 23.6157 59.9525 23.7321C60.0689 23.8465 60.2072 23.9063 60.3694 23.9063C60.5306 23.9063 60.6689 23.8465 60.7833 23.7321C60.8997 23.6157 60.9564 23.4764 60.9564 23.3152C60.9564 23.152 60.8997 23.0138 60.7853 22.8974ZM6.90294 9.41364C6.77269 9.06543 6.8065 8.43964 7.1339 7.98395C7.60845 7.31919 8.64722 6.92026 10.0819 6.92026C10.2063 6.92026 10.3287 6.92418 10.45 6.92827L8.45719 9.99762C8.57552 10.0056 8.69687 10.0106 8.82427 10.0097C10.9983 10.0037 12.245 8.86436 12.7046 8.34604C12.7046 8.34604 13.6071 7.09339 13.6221 7.07346C12.7634 6.74518 11.4968 6.395 9.97354 6.395C7.84332 6.395 6.54387 7.26047 6.53977 8.48643C6.53889 8.85546 6.66327 9.16881 6.90294 9.41364ZM51.5422 8.32914C51.5422 7.93413 51.2754 7.73217 50.9669 7.73217C50.4258 7.73217 50.0934 8.23555 50.0934 8.66241C50.0934 8.99977 50.2943 9.23749 50.6915 9.23749C51.1699 9.23749 51.5422 8.78785 51.5422 8.32914ZM5.97876 9.05653C6.26025 9.87627 7.18959 10.3996 8.75861 10.3996C10.0799 10.3996 11.1146 10.0056 11.8628 9.54602C10.6938 11.2145 9.14668 13.5139 8.58352 14.4403C8.30684 14.8968 8.11182 15.268 8.11182 15.6143C8.11182 16.1993 8.69295 16.5267 9.35753 16.5267C10.1575 16.5267 10.8043 15.9525 11.6221 14.9168L11.9087 14.5347C11.9087 14.5347 11.8678 14.7417 11.8678 14.9287C11.8678 15.7954 12.3963 16.5287 14.0559 16.5287C16.3174 16.5287 18.4138 15.3426 20.4643 13.3885L20.8981 12.9757C20.2444 13.8702 19.9809 14.4929 19.9809 14.8721C19.9809 15.3497 20.3131 15.6342 20.8485 15.6342C21.6693 15.6342 22.5568 14.9885 23.2612 14.2641L23.5815 13.9317C23.3696 14.3397 23.2612 14.6602 23.2612 14.9267C23.2612 15.3157 23.4981 15.6401 24.071 15.6401C25.0801 15.6401 26.0441 14.7317 26.8491 13.868C26.7297 14.1477 26.6192 14.4968 26.6192 14.7636C26.6192 15.3059 26.9813 15.6273 27.5655 15.6273C28.3217 15.6273 29.0818 15.2162 29.9563 14.2303C30.0688 14.1059 30.2409 13.9109 30.396 13.7239C30.2398 14.0403 30.0558 14.4403 30.0558 14.8452C30.0558 15.3287 30.3483 15.6223 30.9184 15.6223C32.1483 15.6223 33.2547 14.3048 33.9193 13.5727C33.596 14.1079 33.3938 14.4871 33.3938 14.858C33.3938 15.3963 33.7819 15.6242 34.2595 15.6242C35.342 15.6242 36.337 14.6541 37.0972 13.702C36.9121 14.0671 36.716 14.4372 36.716 14.8273C36.716 15.3406 37.0683 15.6162 37.6564 15.6162C38.1847 15.6162 38.8592 15.4123 39.6114 14.7417C40.3069 14.1239 40.8313 13.4383 41.254 12.7885C41.4471 13.1179 41.7606 13.3148 42.1197 13.4253C41.9665 13.7686 41.869 14.1477 41.869 14.463C41.869 15.1575 42.3058 15.6203 43.2421 15.6203C44.8291 15.6203 46.1474 14.2581 46.9643 13.3855C46.5623 14.073 46.426 14.489 46.426 14.8253C46.426 15.3287 46.7493 15.6262 47.3443 15.6262C48.3781 15.6262 49.4746 14.5646 50.4258 13.6442C50.7591 13.3189 51.5231 12.5458 52.6156 11.3818C52.54 11.7309 52.4276 12.289 52.3788 12.5696C52.0026 14.663 51.4306 15.3137 50.7272 15.3137C50.1053 15.3137 50.2605 14.6411 49.7989 14.6411C49.6178 14.6411 49.4804 14.7904 49.4804 14.9815C49.4804 15.3406 49.9023 15.655 50.6416 15.655C52.0494 15.655 53.0514 14.7865 53.8425 14.0741C54.2375 13.7198 54.6334 13.3577 55.0691 12.9696C54.8006 13.4403 54.5738 13.9566 54.5738 14.5217C54.5738 15.1497 54.9846 15.6262 55.878 15.6262C57.5963 15.6262 58.9138 14.0383 59.6292 13.1189C60.6052 11.8643 61.3594 10.922 61.8052 10.922C61.9077 10.922 61.9664 10.9748 61.9664 11.0793C61.9664 11.2732 61.8279 11.5061 61.5683 11.9588C60.7395 13.4095 59.5396 15.1904 59.3506 15.5098L60.7603 15.4561C61.418 14.3895 63.2091 12.0503 64.1016 11.2862C63.8747 11.6076 63.7413 11.9787 63.7413 12.2782C63.7413 12.8026 64.0797 13.1269 64.7573 13.1269C65.1105 13.1269 65.388 13.0453 65.6546 12.9079L65.5412 12.6353C65.3662 12.7298 65.2158 12.7796 65.0368 12.7796C64.7233 12.7796 64.6299 12.5638 64.6299 12.3229C64.6299 11.7657 65.1482 11.0663 65.6845 10.8981C65.6806 10.6414 65.4377 10.4533 65.0496 10.4533C64.5135 10.4533 63.7861 10.8723 62.2787 12.8026C62.7274 11.9787 62.9553 11.5846 62.9553 11.112C62.9553 10.7449 62.7075 10.4704 62.1892 10.4704C61.2191 10.4704 60.6032 11.3369 59.3267 12.9577C58.5218 13.9796 57.4631 15.058 56.4323 15.058C56.0691 15.058 55.886 14.8721 55.886 14.5616C55.8852 14.1746 56.0722 13.7098 56.2115 13.4572C57.5428 13.3148 59.447 12.2374 59.447 11.0713C59.447 10.5818 59.1157 10.3788 58.5506 10.3788C57.87 10.3788 57.0213 10.7061 56.1248 11.5408C55.2542 12.3558 53.7966 13.7289 53.0702 14.3129C53.4165 13.7945 53.5081 13.294 53.5081 12.699C53.5081 12.118 53.4475 11.6743 53.4475 11.1081C53.4475 11.0394 53.4533 10.923 53.4624 10.8633C53.7489 10.8076 53.9946 10.6037 53.9946 10.2951C53.9946 10.0643 53.8464 9.88623 53.558 9.88623C53.2037 9.88623 52.8973 10.1499 52.751 10.743C52.3181 11.2186 51.6197 11.9458 50.9948 12.5846C49.4973 14.1139 48.4735 15.0331 47.9125 15.0331C47.7662 15.0331 47.6757 14.9636 47.6757 14.7984C47.6757 14.491 48.1144 13.7209 48.4954 13.1129C48.4954 13.1129 48.8815 12.4871 50.0655 10.6106L48.6616 10.6921C48.5552 10.8693 48.1721 11.3965 48.0956 11.494C47.1114 12.7885 45.2917 15.058 43.7972 15.058C43.3377 15.058 43.1893 14.8233 43.1893 14.504C43.1893 14.1586 43.3515 13.7766 43.4997 13.4622C45.3684 13.2034 46.7424 11.9568 46.7424 11.0713C46.7424 10.6045 46.4598 10.3788 45.8558 10.3788C44.1665 10.3788 42.8183 12.0583 42.272 13.1129C41.9108 13.0104 41.6103 12.7976 41.4621 12.4483C41.9814 11.5787 42.2759 10.8355 42.2759 10.5718C42.2759 10.4314 42.1119 10.3261 41.8928 10.3261C41.6113 10.3261 41.4402 10.4663 41.3357 10.6195C41.1199 10.935 40.9745 11.5309 40.9944 12.1965C40.6551 13.1776 39.2274 15.0253 38.2055 15.0253C38.0116 15.0253 37.939 14.9328 37.939 14.7805C37.939 14.4741 38.3002 13.7705 38.9648 12.6931C39.0503 12.5519 39.8432 11.2424 40.2373 10.6126L38.8404 10.6882C38.5091 11.1976 38.2315 11.6394 37.8792 12.1369C36.4038 14.2193 35.4018 15.0273 34.8645 15.0273C34.7093 15.0273 34.6317 14.9556 34.6317 14.8193C34.6317 14.686 34.7063 14.5139 34.8486 14.2483C35.3013 13.4015 36.3888 11.7956 37.1788 10.6145L35.7628 10.6843C35.6007 10.927 35.1351 11.5768 34.957 11.8026C32.975 14.299 32.0239 15.0173 31.5384 15.0173C31.3652 15.0173 31.3065 14.9148 31.3065 14.7696C31.3065 14.3627 31.7483 13.5995 32.6268 12.1159L36.0345 6.52917L36.3988 6.97791C36.3988 6.97791 36.3063 7.13218 36.1579 7.37791L73.6602 0.0858459L65.5432 12.6353L65.9103 12.8682L66.1103 13.3059C65.8645 13.4453 65.4557 13.6572 64.9462 13.6572C64.9243 13.6572 64.9025 13.6572 64.8815 13.6552L58.291 23.8456L29.4797 18.1306L0.160156 22.7789L7.883 10.8812C6.90988 10.6843 6.08213 10.1499 5.97769 9.05351L5.97876 9.05653ZM14.1881 6.30533L15.8686 6.23273C15.7135 6.4466 15.4348 6.82881 15.1115 7.28343C15.4149 7.42773 15.7243 7.58289 16.0229 7.74303C17.0596 6.42472 18.0266 5.82686 19.2853 5.82686C20.6444 5.82686 21.1549 6.60283 21.1549 7.39588C21.1549 8.1142 20.733 8.93909 20.2366 9.4366C19.5668 10.1081 18.6446 10.4216 17.8983 10.5857C18.3103 10.8117 19.0654 11.1408 19.0654 12.3378C19.0654 13.3428 18.5172 14.2641 17.8775 14.9805C19.1092 14.2702 20.9042 12.5696 21.6892 11.6076C21.8693 11.3827 22.1976 10.9311 22.3648 10.6932L23.8313 10.6026C23.8313 10.6026 21.9607 13.4314 21.5568 14.1258C21.33 14.5187 21.2684 14.691 21.2684 14.8273C21.2684 14.9148 21.325 15.0084 21.4912 15.0084C22.0593 15.0084 23.1289 14.0502 23.891 13.0622C24.2372 12.6104 25.4948 10.7021 25.4948 10.7021L26.9843 10.6086C25.7785 12.4622 25.3835 13.084 25.3835 13.084C24.9945 13.712 24.666 14.273 24.5804 14.5685C24.5536 14.658 24.5397 14.7337 24.5397 14.7974C24.5397 14.9406 24.6114 15.0123 24.7546 15.0123C25.6203 15.0123 27.1713 12.9677 27.6639 12.3438C28.5694 11.2015 29.6688 10.4056 30.8569 10.4056C31.396 10.4056 31.7442 10.6126 31.9115 10.9638C32.381 10.1926 33.2656 8.73109 33.8606 7.74801L15.403 0.662884L14.6946 0.39029L14.2806 1.02711L11.0102 6.06458C12.1425 6.18202 13.0858 6.45959 13.8548 6.7482C13.9772 6.58005 14.0797 6.44162 14.1881 6.30533ZM15.2359 12.0284V12.4075C13.437 12.4373 12.3185 13.6502 12.3185 14.9029C12.3185 15.5794 12.6817 16.047 13.6548 16.047C15.9124 16.047 17.4645 13.6264 17.4645 12.0383C17.4645 11.3181 17.2049 10.6763 16.0656 10.6763H15.5254C15.3413 10.6763 15.1941 10.6901 15.1105 10.707L15.4437 10.2086C16.4188 10.2086 17.187 10.1868 17.7402 9.92805C18.9699 9.34496 19.6136 7.97292 19.6136 7.25656C19.6136 6.76706 19.4206 6.37205 18.7917 6.37205C17.8396 6.37205 16.987 7.28947 16.4398 7.99089C16.9153 8.27647 17.2466 8.52309 17.4845 8.70814L17.2596 9.00279C16.9562 8.76401 16.6019 8.52024 16.2069 8.29231C15.6089 9.08927 14.2479 11.1937 13.3085 12.5696C13.9285 12.1608 14.7235 12.0284 15.2359 12.0284ZM46.1145 10.9768C46.1145 10.8335 46.0339 10.738 45.8768 10.738C45.2122 10.738 44.3385 11.92 43.6819 13.1189C44.7892 12.9428 46.1145 11.8602 46.1145 10.9768ZM58.8152 10.9777C58.8152 10.8335 58.7517 10.738 58.5933 10.738C58.0193 10.738 57.2193 11.6095 56.3955 13.1129C57.5019 12.9328 58.8152 11.7956 58.8152 10.9777ZM28.2649 14.9943C28.5464 14.9943 29.0032 14.7935 29.6647 14.0552C30.2887 13.3657 30.998 12.4503 31.5334 11.5369C31.5811 11.4574 31.606 11.3488 31.606 11.2693C31.606 10.9887 31.419 10.8286 31.1065 10.8286C30.5542 10.8286 30.006 11.2045 29.2558 12.1497C28.6092 12.9616 27.9485 14.1746 27.9485 14.7009C27.9485 14.8372 27.9854 14.9943 28.2649 14.9943ZM9.89685 14.9835C10.1974 14.476 14.5484 8.07843 14.8866 7.60388C15.1911 7.74516 15.4916 7.89142 15.79 8.04961C15.0806 9.01276 14.0598 10.6275 13.0299 12.1319C11.8778 13.8134 11.044 14.9984 10.3883 15.5666C10.1337 15.7885 9.95165 15.8988 9.78351 15.8988C9.64312 15.8988 9.58742 15.8143 9.58742 15.7148C9.58742 15.5954 9.64418 15.4143 9.89685 14.9835Z" fill="#5D646C"/>
<path fill-rule="evenodd" clip-rule="evenodd" d="M15.1092 10.7076L15.4433 10.2081C16.4184 10.2081 17.1876 10.1873 17.7417 9.92857C18.9705 9.34549 19.6134 7.97344 19.6134 7.25601C19.6134 6.76652 19.4203 6.37258 18.7915 6.37258C17.8392 6.37258 16.9876 7.28893 16.4403 7.99141C16.9159 8.27682 17.2463 8.52361 17.4851 8.70777L17.2592 9.00225C16.9558 8.76436 16.6015 8.52059 16.2076 8.29177C15.6095 9.08873 14.2485 11.1931 13.3083 12.5691C13.9281 12.1613 14.7231 12.0278 15.2364 12.0278V12.4081C13.4366 12.4369 12.3183 13.6497 12.3183 14.9034C12.3183 15.579 12.6824 16.0466 13.6555 16.0466C15.9131 16.0466 17.4641 13.6267 17.4641 12.0389C17.4641 11.3175 17.2045 10.6768 16.0663 10.6768H15.5261C15.341 10.6768 15.1937 10.6898 15.1092 10.7076ZM13.0306 12.1325C14.0594 10.628 15.0812 9.01311 15.7907 8.04906C15.4921 7.89177 15.1907 7.74462 14.8862 7.60423C14.5489 8.07789 10.197 14.4755 9.89752 14.984C9.64485 15.4137 9.58613 15.5949 9.58613 15.7143C9.58613 15.8148 9.64378 15.8993 9.78311 15.8993C9.95125 15.8993 10.1333 15.7879 10.3881 15.5669C11.0438 14.9979 11.8784 13.8129 13.0306 12.1325ZM12.7042 8.34657C12.7042 8.34657 13.6067 7.09285 13.6226 7.07399C12.764 6.7457 11.4964 6.39535 9.97403 6.39535C7.84292 6.39535 6.54454 7.26011 6.54044 8.48678C6.53743 9.43303 7.36428 10.0142 8.826 10.0101C10.9979 10.0042 12.2446 8.864 12.7042 8.34657ZM26.8496 13.8686C26.0437 14.7322 25.0797 15.6397 24.0717 15.6397C23.4986 15.6397 23.2608 15.3162 23.2608 14.9262C23.2608 14.6605 23.3703 14.3392 23.5822 13.9314L23.2608 14.2636C22.5564 14.989 21.6689 15.6337 20.849 15.6337C20.3127 15.6337 19.9805 15.3491 19.9805 14.8725C19.9805 14.4935 20.2442 13.8705 20.8968 12.9751L20.465 13.388C18.4134 15.3422 16.3181 16.5292 14.0555 16.5292C12.3959 16.5292 11.8676 15.7949 11.8676 14.9281C11.8676 14.7422 11.9083 14.5353 11.9083 14.5353L11.6217 14.9162C10.805 15.952 10.1571 16.5271 9.3582 16.5271C8.69362 16.5271 8.11249 16.1998 8.11249 15.6148C8.11249 15.2685 8.30662 14.8974 8.58419 14.4417C9.14735 13.5134 10.6945 11.2161 11.8626 9.54548C11.1144 10.0062 10.0795 10.3992 8.75821 10.3992C6.84596 10.3992 5.88477 9.62111 5.88477 8.47788C5.88477 6.99232 7.4141 6.00639 9.89343 6.00639C11.5333 6.00639 12.8455 6.37062 13.8544 6.74855C13.9768 6.5804 14.0804 6.44215 14.1878 6.30496L15.8693 6.23325C15.7131 6.44713 15.4336 6.83129 15.1111 7.28395C15.4165 7.42719 15.725 7.58234 16.0225 7.74355C17.0592 6.42435 18.0264 5.82721 19.2849 5.82721C20.6442 5.82721 21.1545 6.60229 21.1545 7.3964C21.1545 8.11472 20.7337 8.93962 20.2362 9.43694C19.5666 10.1076 18.6453 10.422 17.899 10.5851C18.3109 10.8111 19.0661 11.1414 19.0661 12.3383C19.0661 13.3422 18.5189 14.2636 17.8771 14.981C19.1098 14.2696 20.9038 12.5691 21.6888 11.607C21.8708 11.3832 22.1972 10.9314 22.3644 10.6937L23.832 10.6031C23.832 10.6031 21.9605 13.4308 21.5564 14.1264C21.3287 14.5184 21.268 14.6915 21.268 14.8278C21.268 14.9153 21.3246 15.0079 21.4918 15.0079C22.0589 15.0079 23.1295 14.0497 23.8897 13.0616C24.2379 12.61 25.4944 10.7017 25.4944 10.7017L26.985 10.6081C25.7781 12.4627 25.3831 13.0846 25.3831 13.0846C24.9952 13.7123 24.6658 14.2735 24.5811 14.5691C24.5534 14.6586 24.5404 14.7342 24.5404 14.7968C24.5404 14.9411 24.6121 15.0118 24.7542 15.0118C25.6199 15.0118 27.17 12.9671 27.6636 12.3444C28.57 11.2012 29.6695 10.4051 30.8565 10.4051C31.3956 10.4051 31.7449 10.612 31.912 10.9643C32.6604 9.73356 34.4662 6.74855 34.4662 6.74855L36.0341 6.52969C34.9219 8.33767 32.7936 11.835 32.6264 12.1164C31.7488 13.599 31.3061 14.363 31.3061 14.7691C31.3061 14.9153 31.3659 15.0168 31.539 15.0168C32.0235 15.0168 32.9748 14.2984 34.9566 11.8031C35.1358 11.5762 35.6003 10.9275 35.7635 10.6848L37.1793 10.6142C36.3904 11.7962 35.3019 13.4009 34.8491 14.2486C34.7059 14.5134 34.6313 14.6865 34.6313 14.8198C34.6313 14.9561 34.7089 15.0278 34.8641 15.0278C35.4023 15.0278 36.4034 14.2189 37.8798 12.1374C38.2311 11.6399 38.5097 11.1971 38.841 10.6876L40.2378 10.612C39.843 11.2419 39.0499 12.5522 38.9654 12.6926C38.3007 13.7702 37.9386 14.4735 37.9386 14.781C37.9386 14.9322 38.0112 15.0257 38.2062 15.0257C39.227 15.0257 40.6558 13.1771 40.9951 12.196C40.9741 11.5305 41.1204 10.9355 41.3353 10.619C41.4408 10.4668 41.612 10.3255 41.8935 10.3255C42.1123 10.3255 42.2766 10.4319 42.2766 10.5713C42.2766 10.8359 41.9821 11.5793 41.4616 12.4488C41.6109 12.7979 41.9104 13.01 42.2727 13.1134C42.8189 12.0577 44.166 10.3793 45.8555 10.3793C46.4605 10.3793 46.742 10.6042 46.742 11.0707C46.742 11.9572 45.368 13.204 43.4993 13.4627C43.3511 13.7771 43.1899 14.1591 43.1899 14.5034C43.1899 14.8237 43.3372 15.0575 43.7968 15.0575C45.2913 15.0575 47.1112 12.789 48.0952 11.4946C48.1717 11.3962 48.5548 10.8688 48.6623 10.6917L50.0661 10.6101C48.8802 12.4865 48.4961 13.1134 48.4961 13.1134C48.114 13.7203 47.6753 14.4915 47.6753 14.7979C47.6753 14.963 47.7658 15.0337 47.9132 15.0337C48.4733 15.0337 49.498 14.1143 50.9944 12.5851C51.6193 11.9453 52.3177 11.2189 52.7506 10.7424C52.8969 10.1494 53.2033 9.88676 53.5584 9.88676C53.847 9.88676 53.9942 10.0649 53.9942 10.2957C53.9942 10.6042 53.7495 10.8081 53.4631 10.8627C53.4531 10.9236 53.4471 11.0399 53.4471 11.1076C53.4471 11.6746 53.5088 12.1184 53.5088 12.6995C53.5088 13.2945 53.4163 13.7949 53.07 14.3134C53.7972 13.7283 55.2549 12.3552 56.1265 11.5414C57.021 10.7056 57.8707 10.3793 58.5502 10.3793C59.1153 10.3793 59.4477 10.5812 59.4477 11.0707C59.4477 12.2369 57.5424 13.3145 56.2121 13.4577C56.0728 13.7104 55.8847 14.1741 55.8858 14.5611C55.8858 14.8725 56.0687 15.0575 56.4319 15.0575C57.4627 15.0575 58.5224 13.9791 59.3263 12.9582C60.6039 11.3375 61.2197 10.4707 62.1887 10.4707C62.7081 10.4707 62.956 10.7444 62.956 11.1136C62.956 11.5851 62.7272 11.9782 62.2784 12.802C63.7868 10.8727 64.514 10.4538 65.0494 10.4538C65.4374 10.4538 65.6801 10.6419 65.6841 10.8976C65.1478 11.0657 64.6295 11.7652 64.6295 12.3225C64.6295 12.5632 64.722 12.7791 65.0375 12.7791C65.2156 12.7791 65.3668 12.7294 65.5419 12.6348L65.6552 12.9084C65.3876 13.0458 65.1109 13.1273 64.7569 13.1273C64.0802 13.1273 63.7419 12.802 63.7419 12.2777C63.7419 11.9782 63.8752 11.607 64.1012 11.2857C63.2097 12.0508 61.4186 14.389 60.761 15.4555L59.3512 15.5093C59.5391 15.191 60.7391 13.4098 61.5679 11.9593C61.8277 11.5065 61.9669 11.2727 61.9669 11.0787C61.9669 10.9752 61.9072 10.9225 61.8058 10.9225C61.359 10.9225 60.6058 11.8638 59.6288 13.1195C58.9133 14.0387 57.5961 15.6256 55.8787 15.6256C54.9842 15.6256 54.5734 15.15 54.5734 14.5223C54.5734 13.9572 54.8011 13.4397 55.0689 12.9691C54.634 13.3572 54.2371 13.7193 53.8431 14.0755C53.052 14.7869 52.0501 15.6555 50.6423 15.6555C49.903 15.6555 49.4811 15.3401 49.4811 14.9819C49.4811 14.791 49.6185 14.6386 49.7985 14.6386C50.2603 14.6386 50.106 15.3143 50.7279 15.3143C51.4302 15.3143 52.0033 14.6636 52.3786 12.5691C52.4282 12.2896 52.5407 11.7305 52.6152 11.3821C51.5238 12.5463 50.7587 13.3203 50.4254 13.6438C49.4742 14.565 48.3786 15.6256 47.3439 15.6256C46.75 15.6256 46.4265 15.3303 46.4265 14.8278C46.4265 14.4895 46.5619 14.0735 46.9649 13.3851C46.147 14.2577 44.8287 15.6198 43.2417 15.6198C42.3054 15.6198 41.8696 15.158 41.8696 14.4627C41.8696 14.1472 41.9661 13.768 42.1204 13.4248C41.7613 13.3145 41.4478 13.1184 41.2538 12.789C40.8319 13.4378 40.3056 14.1242 39.6111 14.7422C38.8588 15.4128 38.1843 15.6167 37.656 15.6167C37.067 15.6167 36.7167 15.3401 36.7167 14.8278C36.7167 14.4367 36.9117 14.0677 37.0978 13.7024C36.3366 14.6547 35.3416 15.6237 34.2593 15.6237C33.7836 15.6237 33.3945 15.3968 33.3945 14.8586C33.3945 14.4874 33.5965 14.1073 33.9189 13.573C33.2543 14.3043 32.1479 15.6217 30.9191 15.6217C30.3479 15.6217 30.0554 15.3303 30.0554 14.8447C30.0554 14.4408 30.2396 14.0417 30.3967 13.7234C30.2405 13.9114 30.0684 14.1065 29.957 14.2308C29.0814 15.2159 28.3222 15.6267 27.5661 15.6267C26.982 15.6267 26.6188 15.3054 26.6188 14.763C26.6188 14.4974 26.7313 14.1483 26.8496 13.8686ZM31.534 11.5374C31.5817 11.4577 31.6056 11.3494 31.6056 11.2688C31.6056 10.9882 31.4196 10.828 31.1052 10.828C30.5549 10.828 30.0067 11.2051 29.2565 12.1494C28.6088 12.9632 27.9481 14.1741 27.9481 14.7015C27.9481 14.8367 27.985 14.9949 28.2656 14.9949C28.5471 14.9949 29.0038 14.7929 29.6654 14.0547C30.2892 13.3661 30.9986 12.4508 31.534 11.5374ZM43.6824 13.1195C44.7888 12.9422 46.1142 11.8597 46.1142 10.9773C46.1142 10.8339 46.0336 10.7375 45.8774 10.7375C45.2127 10.7375 44.3392 11.9205 43.6824 13.1195ZM56.3951 13.1134C57.5014 12.9323 58.8158 11.7962 58.8158 10.9773C58.8158 10.8339 58.7512 10.7375 58.5931 10.7375C58.0199 10.7375 57.2199 11.609 56.3951 13.1134ZM50.093 8.66187C50.093 8.23607 50.4254 7.7327 50.9667 7.7327C51.277 7.7327 51.5417 7.93465 51.5417 8.3286C51.5417 8.78731 51.1695 9.23713 50.693 9.23713C50.2941 9.23713 50.093 9.0003 50.093 8.66187Z" fill="#FFFFFE"/>
</svg>
