<svg width="37" height="37" viewBox="0 0 37 37" fill="none" xmlns="http://www.w3.org/2000/svg">
<path fill-rule="evenodd" clip-rule="evenodd" d="M14.0099 8.70901C14.8668 8.70975 15.7212 8.80126 16.5589 8.98201L15.5269 11.774C15.0437 11.7125 14.557 11.6821 14.0699 11.683C12.8505 11.6821 11.6398 11.8873 10.4889 12.29L10.0339 9.31601C11.3202 8.91066 12.6612 8.70593 14.0099 8.70901ZM12.4619 27.309C12.0399 26.5627 11.6846 25.7807 11.3999 24.972L14.3439 24.456C14.5132 24.9012 14.7266 25.3283 14.9809 25.731C15.5708 26.7959 16.3526 27.7425 17.2869 28.523L14.9809 30.404C13.9732 29.5212 13.1207 28.4757 12.4589 27.311L12.4619 27.309ZM36.4349 22.363C36.3457 22.9859 36.2242 23.6038 36.0709 24.214L34.7959 23.668C34.9602 23.1529 35.0819 22.6251 35.1599 22.09L36.4349 22.363ZM34.6749 27.492C34.2919 28.1593 33.8336 28.7804 33.3089 29.343L32.0949 28.043C32.5573 27.6003 32.9741 27.1121 33.3389 26.586L34.6749 27.492ZM31.0639 31.346C30.7424 31.586 30.4087 31.809 30.0639 32.014C29.4641 32.3624 28.8347 32.6569 28.1829 32.894L27.6059 30.709C28.4032 30.4715 29.1677 30.1356 29.8819 29.709C30.0029 29.648 30.0939 29.588 30.2159 29.527L31.0639 31.346ZM25.8439 33.531C24.5116 33.7787 23.147 33.7993 21.8079 33.592L22.6579 31.043C23.7598 31.2455 24.8873 31.2661 25.9959 31.104L25.8439 33.531ZM20.3509 33.319L21.4429 30.77C20.1838 30.411 19.001 29.8247 17.9529 29.04L15.9529 31.195C17.2655 32.1834 18.7589 32.9053 20.3489 33.32L20.3509 33.319ZM6.26988 31.919C5.75977 31.546 5.28268 31.1298 4.84389 30.675L5.93587 29.856C6.30036 30.2609 6.69625 30.6364 7.11986 30.979L6.26988 31.919ZM2.71889 27.883C2.35633 27.1977 2.0419 26.488 1.77788 25.759L3.53789 25.364C3.70941 25.9845 3.92222 26.5929 4.17488 27.185L2.71889 27.883ZM1.17088 22.815C1.1203 22.4225 1.0999 22.0267 1.10988 21.631C1.10887 20.929 1.16978 20.2283 1.29189 19.537L3.47688 20.114C3.26904 20.9268 3.16817 21.7632 3.17687 22.602V22.966L1.17088 22.815ZM1.89888 17.201C2.35099 15.9301 3.00688 14.7412 3.84087 13.681L5.66188 15.654C4.95169 16.5392 4.36932 17.5198 3.93187 18.567L1.89888 17.201ZM4.84288 12.528L6.48186 14.774C7.42112 13.8528 8.52176 13.1122 9.72887 12.589L8.87886 9.79701C7.36075 10.4237 5.98718 11.3549 4.84288 12.533V12.528ZM29.3019 19.356C28.8837 20.0967 28.385 20.7889 27.8149 21.42L25.9029 19.144C26.1936 18.7685 26.4572 18.3729 26.6919 17.96C27.3101 16.9089 27.7415 15.7585 27.9669 14.56L30.7589 15.622C30.4715 16.9368 29.9799 18.1984 29.3019 19.361V19.356ZM13.1019 1.05602C13.6753 0.790598 14.2753 0.587118 14.8919 0.44902L15.0439 1.81502C14.5189 1.93449 14.0019 2.08645 13.4959 2.27002L13.1019 1.05602ZM18.3519 -0.00598145C19.1266 -0.000191267 19.899 0.0811907 20.6579 0.237015L20.1419 1.96701C19.5273 1.79451 18.8973 1.68265 18.2609 1.63301L18.3519 -0.00598145ZM23.5099 1.18301L24.6019 1.72902C25.2019 2.0885 25.7796 2.48387 26.3319 2.91301L24.7239 4.52101C24.1211 3.94468 23.4494 3.44521 22.7239 3.03401C22.6329 2.97301 22.5119 2.91302 22.4239 2.85202L23.5099 1.18301ZM28.0319 4.61201C28.8946 5.65136 29.5909 6.81823 30.0959 8.07101L27.4859 8.64801C27.0801 7.58865 26.5175 6.59625 25.8169 5.70401L28.0319 4.61201ZM30.6099 9.50002C31.018 11.084 31.1412 12.7279 30.9739 14.355L28.1209 13.687C28.2733 12.3867 28.1807 11.0693 27.8479 9.80301L30.6099 9.50002Z" fill="#B8D344"/>
<path fill-rule="evenodd" clip-rule="evenodd" d="M7.87711 17.54C8.31022 16.809 8.80787 16.1183 9.36411 15.476L11.2771 17.753C10.9799 18.1408 10.7064 18.5462 10.4581 18.967C9.84925 20.0196 9.42832 21.1701 9.21411 22.367L6.42209 21.275C6.70923 19.9617 7.20019 18.7015 7.87711 17.54ZM24.7491 9.62002C25.1643 10.3697 25.5194 11.1512 25.8111 11.957L22.8671 12.473C22.6793 12.0281 22.4666 11.5941 22.2301 11.173C21.6116 10.119 20.8218 9.17541 19.8931 8.38102L22.2301 6.53002C23.2198 7.4283 24.0692 8.46988 24.7501 9.62002H24.7491ZM0.7771 14.506C0.83977 13.8888 0.961678 13.2789 1.14111 12.685L2.41611 13.231C2.23093 13.7402 2.10868 14.2701 2.05209 14.809L0.7771 14.506ZM2.50711 9.40601C2.89692 8.75103 3.34364 8.13164 3.8421 7.55502L5.05609 8.85502C4.61759 9.31146 4.21192 9.79835 3.8421 10.312L2.50711 9.40601ZM6.0881 5.55201C6.42091 5.32205 6.76535 5.10944 7.12009 4.91502C7.70888 4.55739 8.32833 4.25285 8.9711 4.00501L9.57809 6.19001C8.77121 6.42719 7.99669 6.76307 7.27209 7.19001C7.18109 7.25101 7.06011 7.31102 6.97211 7.37202L6.0881 5.55201ZM11.3381 3.36701C12.6704 3.11928 14.0349 3.09867 15.3741 3.30602L14.5241 5.85502C13.4205 5.66303 12.293 5.6529 11.1861 5.82502L11.3381 3.36701ZM16.8311 3.57902L15.7391 6.12802C16.9958 6.49333 18.1775 7.0791 19.2291 7.85801L21.2291 5.70301C19.9048 4.73279 18.4138 4.01358 16.8301 3.58102L16.8311 3.57902ZM23.1731 28.19C22.3178 28.1872 21.4645 28.1059 20.6241 27.947L21.6561 25.125C22.1284 25.1954 22.6047 25.2358 23.0821 25.246C24.3102 25.2345 25.5287 25.0296 26.6931 24.639L27.1181 27.583C25.8438 27.9886 24.5143 28.194 23.1771 28.192L23.1731 28.19ZM30.9111 4.97502C31.4054 5.34673 31.8731 5.75238 32.3111 6.18902L31.2191 7.03901C30.8577 6.64185 30.4727 6.26685 30.0661 5.91602L30.9111 4.97502ZM34.4311 9.04102C34.8034 9.71543 35.1279 10.4151 35.4021 11.135L33.6421 11.53C33.4598 10.909 33.2366 10.3006 32.9741 9.70902L34.4311 9.04102ZM36.0091 14.109C36.0391 14.473 36.0701 14.898 36.0701 15.293C36.0712 15.9851 36.0102 16.6758 35.8881 17.357L33.7031 16.78C33.8979 15.9649 33.9986 15.1301 34.0031 14.292C34.0082 14.1699 33.9981 14.0476 33.9731 13.928L36.0091 14.109ZM35.2771 19.725C34.825 20.9959 34.1691 22.1848 33.3351 23.245L31.5141 21.245C32.2389 20.3811 32.8228 19.4081 33.2441 18.362L35.2771 19.725ZM32.3031 24.368L30.6641 22.153C29.7289 23.0717 28.6269 23.8031 27.4171 24.308L28.2971 27.13C29.8028 26.4827 31.1656 25.544 32.3071 24.368H32.3031ZM24.1101 35.868C23.5264 36.1066 22.9286 36.3093 22.3201 36.475L22.1381 35.075C22.6713 34.9617 23.1981 34.8199 23.7161 34.65L24.1101 35.868ZM18.8301 36.9C18.0553 36.8958 17.2828 36.8144 16.5241 36.657L17.0401 34.927C17.6442 35.1065 18.264 35.2284 18.8911 35.291L18.8301 36.9ZM13.6411 35.717C13.2771 35.535 12.9411 35.353 12.5791 35.171C11.9791 34.8115 11.4014 34.4162 10.8491 33.987L12.4271 32.379C13.0337 32.9508 13.7049 33.4498 14.4271 33.866C14.5481 33.927 14.6391 33.987 14.7611 34.048L13.6411 35.717ZM9.15009 32.288C8.27184 31.2542 7.56489 30.0864 7.05609 28.829L9.69611 28.252C10.0778 29.3226 10.6426 30.3187 11.3651 31.196L9.15009 32.288ZM6.6011 27.402C6.17686 25.8207 6.05337 24.1739 6.23709 22.547L9.09009 23.215C8.94788 24.5274 9.04961 25.8547 9.39011 27.13L6.6011 27.402Z" fill="#34A853"/>
<path fill-rule="evenodd" clip-rule="evenodd" d="M7.87686 17.54C8.30998 16.809 8.80763 16.1183 9.36386 15.476L11.2769 17.753C10.9796 18.1408 10.7061 18.5462 10.4579 18.967C9.84901 20.0196 9.42807 21.1701 9.21387 22.367L6.42184 21.275C6.70899 19.9617 7.19995 18.7015 7.87686 17.54ZM24.7488 9.62002C25.164 10.3697 25.5192 11.1512 25.8109 11.957L22.8669 12.473C22.679 12.0281 22.4664 11.5941 22.2299 11.173C21.6114 10.119 20.8215 9.17541 19.8929 8.38102L22.2299 6.53002C23.2196 7.4283 24.069 8.46988 24.7498 9.62002H24.7488ZM0.776855 14.506C0.839526 13.8888 0.961434 13.2789 1.14087 12.685L2.41586 13.231C2.23069 13.7402 2.10843 14.2701 2.05185 14.809L0.776855 14.506ZM2.50687 9.40601C2.89668 8.75103 3.34339 8.13164 3.84186 7.55502L5.05585 8.85502C4.61734 9.31146 4.21167 9.79835 3.84186 10.312L2.50687 9.40601ZM6.08786 5.55201C6.42067 5.32205 6.76511 5.10944 7.11984 4.91502C7.70863 4.55739 8.32809 4.25285 8.97086 4.00501L9.57785 6.19001C8.77097 6.42719 7.99644 6.76307 7.27185 7.19001C7.18085 7.25101 7.05986 7.31102 6.97186 7.37202L6.08786 5.55201ZM11.3379 3.36701C12.6701 3.11928 14.0347 3.09867 15.3738 3.30602L14.5239 5.85502C13.4203 5.66303 12.2927 5.6529 11.1859 5.82502L11.3379 3.36701ZM16.8308 3.57902L15.7389 6.12802C16.9955 6.49333 18.1772 7.0791 19.2289 7.85801L21.2289 5.70301C19.9045 4.73279 18.4136 4.01358 16.8299 3.58102L16.8308 3.57902ZM23.1729 28.19C22.3175 28.1872 21.4643 28.1059 20.6238 27.947L21.6559 25.125C22.1282 25.1954 22.6044 25.2358 23.0818 25.246C24.3099 25.2345 25.5285 25.0296 26.6928 24.639L27.1179 27.583C25.8436 27.9886 24.5141 28.194 23.1768 28.192L23.1729 28.19ZM30.9109 4.97502C31.4051 5.34673 31.8729 5.75238 32.3109 6.18902L31.2188 7.03901C30.8574 6.64185 30.4724 6.26685 30.0659 5.91602L30.9109 4.97502ZM34.4308 9.04102C34.8032 9.71543 35.1276 10.4151 35.4019 11.135L33.6418 11.53C33.4595 10.909 33.2364 10.3006 32.9738 9.70902L34.4308 9.04102ZM36.0089 14.109C36.0388 14.473 36.0699 14.898 36.0699 15.293C36.0709 15.9851 36.01 16.6758 35.8878 17.357L33.7029 16.78C33.8977 15.9649 33.9984 15.1301 34.0029 14.292C34.008 14.1699 33.9979 14.0476 33.9729 13.928L36.0089 14.109ZM35.2769 19.725C34.8247 20.9959 34.1689 22.1848 33.3349 23.245L31.5139 21.245C32.2387 20.3811 32.8226 19.4081 33.2439 18.362L35.2769 19.725ZM32.3029 24.368L30.6638 22.153C29.7287 23.0717 28.6266 23.8031 27.4169 24.308L28.2968 27.13C29.8025 26.4827 31.1653 25.544 32.3069 24.368H32.3029ZM24.1099 35.868C23.5261 36.1066 22.9283 36.3093 22.3199 36.475L22.1378 35.075C22.6711 34.9617 23.1978 34.8199 23.7159 34.65L24.1099 35.868ZM18.8299 36.9C18.055 36.8958 17.2826 36.8144 16.5239 36.657L17.0399 34.927C17.644 35.1065 18.2638 35.2284 18.8909 35.291L18.8299 36.9ZM13.6409 35.717C13.2769 35.535 12.9409 35.353 12.5789 35.171C11.9789 34.8115 11.4012 34.4162 10.8488 33.987L12.4268 32.379C13.0334 32.9508 13.7046 33.4498 14.4268 33.866C14.5478 33.927 14.6389 33.987 14.7609 34.048L13.6409 35.717ZM9.14984 32.288C8.2716 31.2542 7.56464 30.0864 7.05585 28.829L9.69586 28.252C10.0776 29.3226 10.6423 30.3187 11.3649 31.196L9.14984 32.288ZM6.60086 27.402C6.17661 25.8207 6.05313 24.1739 6.23685 22.547L9.08984 23.215C8.94763 24.5274 9.04936 25.8547 9.38986 27.13L6.60086 27.402Z" fill="#34A853"/>
</svg>


